<svg width="24" height="30" viewBox="0 0 24 30" fill="none" xmlns="http://www.w3.org/2000/svg">
<path d="M19.7297 16.0678C19.744 14.9549 20.0396 13.8637 20.589 12.8958C21.1384 11.9278 21.9236 11.1146 22.8718 10.5317C22.2695 9.67146 21.4749 8.96354 20.5511 8.46414C19.6273 7.96474 18.5998 7.68761 17.5502 7.65477C15.3112 7.41976 13.1406 8.99454 11.9997 8.99454C10.8367 8.99454 9.08 7.6781 7.18836 7.71702C5.96479 7.75655 4.77233 8.11236 3.72716 8.74977C2.68199 9.38718 1.81975 10.2845 1.22446 11.3542C-1.3542 15.8187 0.569248 22.3801 3.0394 25.989C4.27526 27.7561 5.71964 29.73 7.60957 29.66C9.45898 29.5833 10.1497 28.4807 12.3821 28.4807C14.5938 28.4807 15.2418 29.66 17.1701 29.6155C19.1546 29.5833 20.4049 27.8405 21.5975 26.0567C22.4854 24.7975 23.1687 23.4059 23.622 21.9333C22.4691 21.4457 21.4852 20.6294 20.793 19.5864C20.1008 18.5433 19.731 17.3196 19.7297 16.0678Z" fill="black"/>
<path d="M16.0875 5.28136C17.1696 3.98241 17.7026 2.31284 17.5736 0.627197C15.9204 0.800825 14.3934 1.5909 13.2968 2.84001C12.7606 3.45023 12.3499 4.16015 12.0883 4.92917C11.8266 5.6982 11.7191 6.51125 11.7718 7.32186C12.5987 7.33038 13.4167 7.15116 14.1642 6.79771C14.9118 6.44426 15.5694 5.92579 16.0875 5.28136Z" fill="black"/>
</svg>
