<svg width="22" height="27" viewBox="0 0 22 27" fill="none" xmlns="http://www.w3.org/2000/svg">
<path d="M18.3568 14.3608C18.3697 13.3592 18.6357 12.3771 19.1301 11.506C19.6246 10.6348 20.3313 9.90292 21.1846 9.37831C20.6425 8.60412 19.9274 7.96699 19.096 7.51753C18.2646 7.06807 17.3399 6.81865 16.3952 6.7891C14.3801 6.57759 12.4266 7.99489 11.3998 7.99489C10.353 7.99489 8.77203 6.8101 7.06955 6.84513C5.96834 6.8807 4.89513 7.20093 3.95447 7.7746C3.01382 8.34827 2.23781 9.15582 1.70205 10.1186C-0.618753 14.1367 1.11235 20.0419 3.33549 23.2899C4.44777 24.8803 5.7477 26.6568 7.44864 26.5938C9.11311 26.5248 9.73476 25.5324 11.7439 25.5324C13.7344 25.5324 14.3177 26.5938 16.0531 26.5538C17.8392 26.5248 18.9645 24.9563 20.0377 23.3508C20.8369 22.2176 21.4519 20.9651 21.8598 19.6398C20.8222 19.2009 19.9367 18.4663 19.3137 17.5275C18.6908 16.5888 18.358 15.4874 18.3568 14.3608Z" fill="white"/>
<path d="M15.0788 4.6531C16.0526 3.48405 16.5324 1.98143 16.4162 0.464355C14.9284 0.62062 13.5541 1.33169 12.5671 2.45589C12.0845 3.00509 11.715 3.64401 11.4795 4.33613C11.244 5.02826 11.1472 5.76001 11.1947 6.48955C11.9388 6.49722 12.675 6.33592 13.3478 6.01782C14.0206 5.69971 14.6125 5.23309 15.0788 4.6531Z" fill="white"/>
</svg>
